# xmcd
#
# Track frame offsets:
#	150
#	15487
#	29012
#	44270
#	57047
#	72690
#	87607
#	104697
#	121052
#	135600
#
# Disc length: 1989 seconds
#
# Revision: 0
# Processed by: cddbd v1.5.2PL0 Copyright (c) Steve Scherf et al.
# Submitted via: dBpowerAMP V4.0
#
DISCID=8d07c30a
DTITLE=Abel Zavala - Listo para nuestro encuentro
DYEAR=2010
DGENRE=Christian Music
TTITLE0=El Padre Que Siempre Soñe
TTITLE1=Veo Llover
TTITLE2=Vivire
TTITLE3=Lo Unico Que Quiero
TTITLE4=Estar Contigo
TTITLE5=Nueva Historia
TTITLE6=No Hace Falta
TTITLE7=Deseado De Mi Alma
TTITLE8=Es Hora De Volver
TTITLE9=Listo Para Nuestro Encuentro
EXTD=
EXTT0=
EXTT1=
EXTT2=
EXTT3=
EXTT4=
EXTT5=
EXTT6=
EXTT7=
EXTT8=
EXTT9=
PLAYORDER=
